<?xml version="1.0" encoding="UTF-8"?>
<svg width="24" height="24" viewBox="0 0 1920 1920" xmlns="http://www.w3.org/2000/svg">
<g transform="translate(0,1920) scale(0.1,-0.1)" fill="#f97316" stroke="none">
<path d="M9370 18354 c-494 -61 -904 -225 -1279 -512 -159 -122 -318 -278
-438 -432 -501 -644 -659 -1473 -428 -2255 117 -397 330 -756 621 -1048 110
-111 243 -223 354 -299 176 -121 430 -248 607 -304 l93 -29 -3 -3879 -2 -3878
-95 -33 c-128 -44 -204 -75 -296 -124 l-78 -40 -50 39 c-28 22 -82 67 -121
100 -38 33 -130 111 -204 173 -74 61 -184 155 -244 207 -60 52 -139 119 -176
149 -36 29 -124 104 -196 165 -71 61 -155 131 -185 156 -30 24 -89 74 -130
110 -41 37 -154 132 -250 213 -246 206 -334 281 -503 425 -81 70 -157 135
-168 144 l-20 17 29 88 c46 135 78 267 114 473 18 104 17 556 -1 675 -85 564
-320 1036 -705 1420 -140 139 -143 142 -262 233 -350 266 -767 433 -1214 488
-190 23 -534 15 -710 -16 -422 -74 -784 -232 -1119 -488 -159 -122 -318 -278
-438 -432 -501 -644 -659 -1473 -428 -2255 117 -397 330 -756 621 -1048 381
-381 821 -608 1379 -709 116 -20 159 -23 400 -22 232 0 287 3 393 22 349 62
606 156 902 331 81 48 85 49 106 33 12 -9 70 -59 130 -110 60 -51 186 -158
279 -237 94 -79 246 -208 339 -287 93 -79 201 -170 241 -203 40 -33 133 -111
207 -173 73 -63 211 -180 306 -260 96 -81 240 -203 320 -272 81 -69 182 -154
224 -189 l77 -63 -13 -32 c-8 -17 -26 -58 -41 -91 -59 -129 -129 -371 -160
-549 -51 -298 -44 -621 20 -937 94 -459 334 -904 671 -1242 381 -381 823 -609
1379 -708 113 -21 162 -24 380 -24 218 0 267 3 380 24 556 99 998 327 1379
708 243 244 435 540 562 868 154 399 202 887 129 1311 -31 178 -101 420 -160
549 -15 33 -33 74 -41 91 l-13 32 77 63 c42 35 143 120 224 189 80 69 224 191
320 272 95 80 233 197 306 260 74 62 167 140 207 173 40 33 148 124 241 203
93 79 246 208 339 287 94 79 219 186 279 237 60 51 118 101 130 110 21 16 25
15 106 -33 296 -175 553 -269 902 -331 106 -19 161 -22 393 -22 241 -1 284 2
400 22 558 101 998 328 1379 709 243 244 435 540 562 868 154 399 202 887 129
1311 -108 621 -444 1180 -936 1556 -335 256 -697 414 -1119 488 -176 31 -520
39 -710 16 -447 -55 -864 -222 -1214 -488 -119 -91 -122 -94 -262 -233 -385
-384 -620 -856 -705 -1420 -18 -119 -19 -571 -1 -675 36 -206 68 -338 114
-473 l29 -88 -20 -17 c-11 -9 -87 -74 -168 -144 -169 -144 -257 -219 -503
-425 -96 -81 -209 -176 -250 -213 -41 -36 -100 -86 -130 -110 -30 -25 -113
-95 -185 -156 -71 -61 -160 -136 -196 -165 -37 -30 -116 -97 -176 -149 -60
-52 -170 -146 -244 -207 -74 -62 -165 -140 -204 -173 -38 -33 -93 -78 -121
-100 l-50 -39 -78 40 c-92 49 -168 80 -296 124 l-95 33 -2 3878 -3 3879 93 29
c246 78 535 238 764 423 386 312 677 749 818 1228 108 367 133 766 70 1131
-108 621 -444 1180 -936 1556 -335 256 -696 414 -1119 488 -101 18 -171 23
-360 25 -129 2 -251 1 -270 -1z m355 -1234 c182 -21 396 -100 565 -211 88 -58
255 -227 315 -319 284 -435 283 -947 -3 -1385 -58 -88 -226 -257 -312 -314
-36 -23 -114 -66 -175 -96 -331 -162 -689 -162 -1020 0 -158 77 -227 126 -340
240 -420 419 -480 1049 -150 1555 60 92 227 261 315 319 101 66 276 146 380
175 153 42 276 52 425 36z m-5654 -7565 c253 -53 457 -162 634 -340 419 -418
480 -1049 150 -1555 -63 -96 -229 -262 -325 -325 -379 -247 -826 -280 -1215
-90 -158 77 -227 126 -340 240 -420 419 -480 1049 -150 1555 60 92 227 261
315 319 162 106 380 189 550 210 98 13 288 5 381 -14z m11434 15 c182 -21 396
-100 565 -211 88 -58 255 -227 315 -319 284 -435 283 -947 -3 -1385 -58 -88
-226 -257 -312 -314 -381 -249 -825 -287 -1215 -102 -148 70 -238 133 -350
246 -419 418 -480 1049 -150 1555 62 95 228 262 320 322 261 170 541 240 830
208z m-5780 -4990 c182 -21 396 -100 565 -211 88 -58 255 -227 315 -319 284
-435 283 -947 -3 -1385 -58 -88 -226 -257 -312 -314 -36 -23 -114 -66 -175
-96 -331 -162 -689 -162 -1020 0 -158 77 -227 126 -340 240 -420 419 -480
1049 -150 1555 60 92 227 261 315 319 101 66 276 146 380 175 153 42 276 52
425 36z"/>
</g>
</svg>
